<svg xmlns="http://www.w3.org/2000/svg" viewBox="0 0 512 512" fill="none">
  <defs>
    <linearGradient id="cyan-blue" x1="0%" y1="0%" x2="100%" y2="100%">
      <stop offset="0%" stop-color="#00f0ff" />
      <stop offset="100%" stop-color="#3b82f6" />
    </linearGradient>
    <linearGradient id="purple-blue" x1="0%" y1="0%" x2="100%" y2="100%">
      <stop offset="0%" stop-color="#8b5cf6" />
      <stop offset="100%" stop-color="#3b82f6" />
    </linearGradient>
  </defs>
  <!-- Background Shield/Hexagon -->
  <path d="M256 24L464 144v224L256 488 48 368V144L256 24z" fill="#0d1321" stroke="url(#cyan-blue)" stroke-width="24" stroke-linejoin="round"/>
  
  <!-- Graduation Cap Top -->
  <path d="M256 96L128 176l128 80 128-80-128-80z" fill="url(#purple-blue)" />
  <path d="M160 216v80c0 40 48 64 96 64s96-24 96-64v-80" fill="none" stroke="url(#cyan-blue)" stroke-width="24" stroke-linecap="round"/>
  
  <!-- AI Neural Nodes / Stars -->
  <circle cx="256" cy="312" r="16" fill="#00f0ff" />
  <circle cx="192" cy="272" r="12" fill="#00f0ff" />
  <circle cx="320" cy="272" r="12" fill="#00f0ff" />
  
  <!-- Connections -->
  <path d="M204 278l40 26M308 278l-40 26" stroke="#00f0ff" stroke-width="8" stroke-linecap="round"/>
  
  <!-- Tassel -->
  <path d="M384 176v64" stroke="#8b5cf6" stroke-width="12" stroke-linecap="round"/>
  <circle cx="384" cy="256" r="16" fill="#8b5cf6" />
</svg>
